<svg id="Capa_1" enable-background="new 0 0 512 512" height="512" viewBox="0 0 512 512" width="512" xmlns="http://www.w3.org/2000/svg"><g><path d="m512 256c0 103.83-61.82 193.22-150.65 233.38 0 0 0 .01-.01.01-17.74 8.02-36.55-8.96-56.17-5.15-15.91 3.11-32.35 1.19-49.17 1.19-37.55 0-73.22 18.48-105.35 3.95-88.83-40.16-150.65-129.55-150.65-233.38 0-141.38 114.62-256 256-256s256 114.62 256 256z" fill="#9d66d5"/><path d="m447.69 208.76s-40.17 67.34-40.17 163.86v7.86c0 41.84-16.96 79.72-44.38 107.14-.59.59-1.19 1.18-1.79 1.76 0 0 0 .01-.01.01-32.13 14.52-67.79 22.61-105.34 22.61s-73.22-8.09-105.35-22.62c-28.47-27.55-46.17-66.16-46.17-108.9v-7.86c0-95.77-39.54-162.81-40.16-163.85-.01-.01-.01-.01-.01-.01 47.37-13.47 80.58 13.47 80.58 13.47v-137.33c0-10.22 4.15-19.48 10.85-26.18s15.96-10.85 26.18-10.85c20.46 0 37.04 16.58 37.04 37.03h74.08c0-10.22 4.14-19.48 10.85-26.18 6.7-6.7 15.96-10.85 26.19-10.85 20.45 0 37.03 16.58 37.03 37.03v137.33s33.21-26.94 80.58-13.47z" fill="#ccf49f"/><path d="m218.962 265.378v-227.84c0-20.456 16.582-37.038 37.038-37.038 20.456 0 37.038 16.582 37.038 37.038v227.84" fill="#ccf49f"/><g fill="#95d6a4"><path d="m268.172 2.538c-14.48 5.04-24.87 18.8-24.87 35v227.84h-24.34v-227.84c0-20.46 16.59-37.04 37.04-37.04 4.26 0 8.36.72 12.17 2.04z"/><path d="m194.096 49.905c-14.48 5.04-24.87 18.8-24.87 35v179.973h-24.34v-179.973c0-20.46 16.59-37.04 37.04-37.04 4.26 0 8.36.72 12.17 2.04z"/><path d="m342.248 49.905c-14.48 5.04-24.87 18.8-24.87 35v179.973h-24.34v-179.973c0-20.46 16.59-37.04 37.04-37.04 4.26 0 8.36.72 12.17 2.04z"/></g><g><circle cx="461.882" cy="147.353" fill="#f6e781" r="32.952"/><path d="m473.62 178.143c-3.64 1.4-7.6 2.16-11.74 2.16-18.2 0-32.95-14.75-32.95-32.95s14.75-32.95 32.95-32.95c4.14 0 8.1.76 11.74 2.16-12.41 4.72-21.22 16.72-21.22 30.79s8.81 26.07 21.22 30.79z" fill="#ffd064"/><circle cx="50.118" cy="147.353" fill="#f6e781" r="32.952"/><path d="m61.857 178.143c-3.64 1.4-7.6 2.16-11.74 2.16-18.2 0-32.95-14.75-32.95-32.95s14.75-32.95 32.95-32.95c4.14 0 8.1.76 11.74 2.16-12.41 4.72-21.22 16.72-21.22 30.79s8.81 26.07 21.22 30.79z" fill="#ffd064"/></g><path d="m447.69 208.76c-68.71 22.35-80.58 100.24-80.58 100.24v-86.77s33.21-26.94 80.58-13.47z" fill="#95d6a4"/><path d="m305.17 507.27c-15.91 3.11-32.35 4.73-49.17 4.73-37.55 0-73.22-8.09-105.35-22.62-28.47-27.55-46.17-66.16-46.17-108.9v-7.86c0-95.77-39.54-162.81-40.16-163.85.98.36 63.68 24.01 63.68 81.17 0 54.11-2.68 217.88 177.17 217.33z" fill="#95d6a4"/><g><path d="m352.537 358.828c-19.384 33.474-55.555 56.008-97.019 56.008-10.574 0-20.795-1.462-30.499-4.209-28.319-8.003-52.076-26.87-66.507-51.799 14.43-24.942 38.187-43.808 66.507-51.811 9.704-2.747 19.925-4.209 30.499-4.209 41.465 0 77.636 22.534 97.019 56.02z" fill="#fff"/><circle cx="256.313" cy="358.822" fill="#e29e47" r="38.08"/><circle cx="256.313" cy="358.822" fill="#3342aa" r="16.645"/><path d="m205.636 358.828c0 19.837 7.31 37.948 19.384 51.799-28.319-8.003-52.076-26.87-66.507-51.799 14.43-24.942 38.187-43.808 66.507-51.811-12.075 13.864-19.384 31.974-19.384 51.811z" fill="#e4e4e4"/><path d="m255.519 423.659c-11.186 0-22.255-1.529-32.903-4.543-30.374-8.583-55.853-28.424-71.738-55.867l-2.558-4.418 2.557-4.419c15.882-27.45 41.362-47.297 71.744-55.883 10.643-3.014 21.713-4.542 32.898-4.542 42.979 0 83.08 23.153 104.654 60.423l2.559 4.421-2.56 4.42c-21.577 37.26-61.678 60.408-104.653 60.408zm-86.66-64.832c13.574 20.901 34.655 36.555 58.56 43.31 9.087 2.573 18.54 3.877 28.1 3.877 34.972 0 67.718-17.954 86.674-47.187-18.954-29.239-51.7-47.198-86.674-47.198-9.56 0-19.012 1.304-28.096 3.876-23.912 6.758-44.994 22.414-58.564 43.322z" fill="#95d6a4"/></g><g fill="#ebae68"><g><path d="m430.902 423.556 1.227-1.983c4.326-6.992 13.327-9.441 20.599-5.604l22.368 11.803c8.012 4.228 10.767 14.356 6.001 22.06l-3.048 4.926c-4.766 7.704-15.06 9.76-22.419 4.478l-20.547-14.746c-6.68-4.794-8.507-13.942-4.181-20.934z"/><path d="m439.658 363.677.071-2.33c.25-8.218 6.821-14.839 15.037-15.152l25.272-.962c9.052-.345 16.503 7.049 16.227 16.104l-.176 5.79c-.276 9.055-8.162 15.982-17.177 15.087l-25.167-2.497c-8.181-.813-14.337-7.822-14.087-16.04z"/><path d="m436.62 302.266-1.104-2.053c-3.893-7.242-1.513-16.262 5.446-20.641l21.405-13.47c7.667-4.825 17.817-2.147 22.105 5.833l2.742 5.102c4.289 7.979.922 17.922-7.332 21.654l-23.044 10.421c-7.49 3.387-16.326.396-20.218-6.846z"/></g><g><path d="m81.098 423.556-1.226-1.983c-4.326-6.992-13.327-9.441-20.599-5.604l-22.368 11.803c-8.012 4.228-10.767 14.356-6.001 22.06l3.048 4.926c4.766 7.704 15.06 9.76 22.419 4.478l20.547-14.746c6.679-4.794 8.506-13.942 4.18-20.934z"/><path d="m72.342 363.677-.071-2.33c-.25-8.218-6.821-14.839-15.037-15.152l-25.272-.962c-9.052-.345-16.503 7.049-16.227 16.104l.176 5.79c.276 9.055 8.162 15.982 17.177 15.087l25.167-2.497c8.181-.813 14.337-7.822 14.087-16.04z"/><path d="m75.38 302.266 1.104-2.053c3.893-7.242 1.513-16.262-5.446-20.641l-21.405-13.47c-7.667-4.825-17.817-2.147-22.105 5.833l-2.742 5.102c-4.289 7.979-.922 17.922 7.332 21.654l23.044 10.421c7.49 3.387 16.326.396 20.218-6.846z"/></g></g></g></svg>